<?xml version="1.0" encoding="iso-8859-1"?>
<!-- Generator: Adobe Illustrator 19.0.0, SVG Export Plug-In . SVG Version: 6.00 Build 0)  -->
<svg xmlns="http://www.w3.org/2000/svg" xmlns:xlink="http://www.w3.org/1999/xlink" version="1.1" id="Layer_1" x="0px" y="0px" viewBox="0 0 512.002 512.002" style="enable-background:new 0 0 512.002 512.002;" xml:space="preserve" width="512px" height="512px">
<g>
	<g>
		<path d="M145.692,312.198c2.824,1.827,6.458,1.829,9.282,0l62.512-40.477l62.523,40.477c2.824,1.827,6.458,1.827,9.282,0    l62.522-40.477l62.523,40.477c2.823,1.826,6.456,1.827,9.281,0l23.008-14.889c1.881,11.437,2.832,22.435,2.832,32.826    c0,4.716,3.822,8.539,8.539,8.539s8.539-3.823,8.539-8.539c0-15.266-1.87-31.648-5.556-48.692    c-0.593-2.742-2.493-5.017-5.086-6.088c-2.591-1.07-5.545-0.799-7.899,0.724l-29.015,18.777l-48.062-31.116    c-1.57-12.002-3.99-24.503-7.239-37.357c34.466,8.111,62.512,5.634,79.959-7.279c11.979-8.867,18.312-22.298,18.312-38.842    c0-38.008-32.362-75.057-84.776-97.48C372.414,67.108,349.118,0,299.096,0c-3.487,0-6.625,2.121-7.924,5.359    c-1.3,3.237-0.499,6.938,2.02,9.35c0.262,0.25,23.451,22.771,28.293,51.609c-8.272-1.484-16.67-2.604-25.115-3.337    c-17.268-34.281-39.947-52.37-65.801-52.37c-3.484,0-6.613,2.12-7.915,5.351c-1.302,3.23-0.507,6.933,2.003,9.349    c0.19,0.183,17.098,16.669,25.083,39.331c-13.344,3.716-23.755,11.206-31.023,22.346c-8.767,13.409-12.216,30.788-13.567,48.872    c-8.69-14.346-20.518-29.591-36.545-43.461c-29.903-25.864-68.126-41.691-113.607-47.041c-3.756-0.441-7.377,1.66-8.857,5.158    s-0.467,7.556,2.478,9.953c0.413,0.336,41.174,34.009,30.096,67.226c-1.421,4.259,0.699,8.89,4.85,10.599    c0.319,0.131,31.897,13.56,31.897,51.149c0,4.065,2.866,7.566,6.85,8.371c0.434,0.088,42.217,8.88,68.447,43.9    c-7.515,19.193-16.497,34.178-22.4,41.476l-18.022,11.67l-29.004-18.776c-2.355-1.523-5.309-1.798-7.899-0.724    c-2.593,1.07-4.494,3.346-5.087,6.088c-3.687,17.043-5.556,33.426-5.556,48.692c0,100.279,81.589,181.864,181.875,181.864    c86.859,0,161.938-61.783,178.516-146.907c0.902-4.629-2.119-9.113-6.749-10.015c-4.626-0.901-9.113,2.12-10.014,6.749    c-15.021,77.12-83.048,133.094-161.753,133.094c-90.869,0-164.797-73.923-164.797-164.785c0-10.389,0.951-21.388,2.832-32.824    L145.692,312.198z M345.468,52.318c4.637,7.982,8.239,16.037,10.851,22.669c-5.603-1.81-11.328-3.445-17.15-4.891    c-1.463-17.219-8.445-32.586-15.73-44.313C331.259,31.668,338.619,40.529,345.468,52.318z M221.366,175.164l-0.002-3.898    c-0.026-26.732-0.056-57.031,11.651-74.937c4.821-7.389,11.581-12.331,20.515-14.992c0.639,6.51,0.25,12.858-1.21,18.947    c-1.101,4.586,1.726,9.195,6.311,10.295c0.671,0.161,1.34,0.238,1.999,0.238c3.859,0,7.357-2.633,8.297-6.549    c2.694-11.23,2.665-23.014-0.084-35.017c-2.857-12.538-8.291-23.743-13.904-32.791c9.183,6.879,18.941,18.678,28.178,38.292    c6.673,14.163,9.902,26.073,9.935,26.193c1.218,4.553,5.896,7.262,10.45,6.044c4.558-1.215,7.266-5.894,6.05-10.452    c-0.099-0.372-1.78-6.601-5.219-15.548c8.359,1.03,16.637,2.454,24.738,4.265c13.006,2.891,25.54,6.763,37.267,11.515    c10.459,4.22,20.057,9.021,28.686,14.277c-2.162,1.255-4.177,2.794-5.992,4.608c-3.335,3.335-3.335,8.742,0.001,12.077    c3.334,3.335,8.741,3.334,12.076,0c2.257-2.258,5.26-3.502,8.454-3.502c1.974,0,3.875,0.478,5.573,1.375    c13.85,12.006,23.309,25.422,27.416,39.216c-1.922-0.227-3.947,0.18-5.76,1.462c-3.153,2.229-4.386,6.466-2.988,10.051    c1.265,3.244,4.465,5.442,7.952,5.442c1.082,0,2.127-0.219,3.097-0.606c-0.205,10.623-4.023,18.77-11.374,24.213    c-15.171,11.229-44.118,11.488-79.423,0.713c-0.023-0.007-0.044-0.017-0.067-0.024c-24.726-7.534-51.597-20.323-77.707-36.985    c-3.974-2.537-9.254-1.372-11.791,2.605c-2.538,3.976-1.371,9.255,2.605,11.792c25.849,16.496,52.52,29.404,77.447,37.512    c3.092,10.961,5.573,21.669,7.425,32.027c-1.665-0.03-3.335,0.418-4.791,1.361l-62.522,40.477l-62.523-40.477    c-2.824-1.827-6.458-1.829-9.282,0l-12.432,8.05C211.303,239.384,221.366,208.101,221.366,175.164z M132.276,182.761    c-1.387-17.474-8.119-30.485-15.818-39.859c4.957,1.199,10.364,2.758,16.088,4.786c0.943,0.335,1.906,0.493,2.853,0.493    c3.515,0,6.807-2.186,8.049-5.688c1.576-4.445-0.75-9.326-5.195-10.902c-17.01-6.031-31.62-8.341-40.927-9.217    c2.67-21.911-8.429-41.937-19.317-55.809c31.115,7.023,57.752,20.006,79.421,38.749c25.863,22.38,39.709,48.781,46.857,67.482    v0.187c-13.288-13.074-28.258-23.887-44.713-32.245c-4.206-2.135-9.345-0.458-11.48,3.747c-2.136,4.205-0.459,9.345,3.746,11.48    c19.361,9.834,36.481,23.441,50.944,40.462c-1.246,9.097-3.195,17.928-5.592,26.287    C174.184,197.315,145.145,186.522,132.276,182.761z" fill="#FFFFFF"/>
	</g>
</g>
<g>
	<g>
		<path d="M360.12,115.654c-5.483-5.483-12.775-8.504-20.53-8.504c-7.755,0-15.046,3.021-20.53,8.504    c-3.336,3.335-3.336,8.742-0.001,12.077c3.335,3.331,8.742,3.334,12.075-0.001c2.259-2.259,5.261-3.502,8.455-3.502    s6.195,1.243,8.453,3.502c1.668,1.667,3.853,2.501,6.039,2.501c2.185,0,4.371-0.833,6.038-2.5    C363.455,124.396,363.455,118.989,360.12,115.654z" fill="#FFFFFF"/>
	</g>
</g>
<g>
	<g>
		<path d="M406.265,172.959c-3.215,2.144-4.596,6.34-3.294,9.977c1.2,3.357,4.473,5.668,8.042,5.668c4.11,0,7.697-3.051,8.406-7.083    C420.699,174.256,412.365,168.892,406.265,172.959z" fill="#FFFFFF"/>
	</g>
</g>
<g>
</g>
<g>
</g>
<g>
</g>
<g>
</g>
<g>
</g>
<g>
</g>
<g>
</g>
<g>
</g>
<g>
</g>
<g>
</g>
<g>
</g>
<g>
</g>
<g>
</g>
<g>
</g>
<g>
</g>
</svg>
