<?xml version="1.0" standalone="no"?>
<!DOCTYPE svg PUBLIC "-//W3C//DTD SVG 20010904//EN"
 "http://www.w3.org/TR/2001/REC-SVG-20010904/DTD/svg10.dtd">
<svg version="1.0" xmlns="http://www.w3.org/2000/svg"
 width="700.000000pt" height="700.000000pt" viewBox="0 0 700.000000 700.000000"
 preserveAspectRatio="xMidYMid meet">
<metadata>
Created by potrace 1.11, written by Peter Selinger 2001-2013
</metadata>
<g transform="translate(0.000000,700.000000) scale(0.100000,-0.100000)"
fill="#000000" stroke="none">
<path d="M4041 6988 c-40 -22 -66 -65 -65 -108 1 -42 15 -63 99 -155 61 -67
164 -222 214 -321 63 -128 124 -329 93 -310 -6 4 -94 17 -207 31 -135 17 -120
8 -166 93 -145 265 -352 479 -551 570 -71 33 -185 61 -258 65 -98 5 -149 -28
-164 -108 -6 -28 20 -73 84 -145 92 -105 169 -219 231 -345 32 -65 59 -124 59
-130 0 -7 -19 -18 -42 -25 -135 -40 -281 -149 -367 -273 -67 -98 -133 -266
-157 -402 -3 -16 -9 -48 -14 -70 -5 -22 -12 -75 -16 -117 -4 -43 -10 -78 -14
-78 -5 0 -27 30 -51 68 -125 200 -343 435 -550 594 -393 301 -851 478 -1430
554 -83 11 -152 -45 -144 -116 1 -14 3 -30 4 -37 0 -6 47 -58 104 -115 178
-180 289 -348 340 -515 21 -68 25 -99 22 -180 -1 -54 -5 -109 -9 -123 -29
-101 -12 -141 82 -194 191 -110 321 -266 377 -456 17 -55 23 -94 31 -185 10
-121 28 -140 179 -184 90 -27 145 -48 255 -99 197 -91 423 -263 553 -421 l44
-54 -29 -71 c-72 -176 -220 -438 -276 -490 -15 -14 -76 -57 -136 -95 -92 -60
-111 -69 -129 -60 -11 6 -99 63 -196 127 -194 127 -229 144 -275 131 -59 -16
-81 -57 -104 -192 -43 -242 -54 -356 -54 -551 -1 -175 11 -309 38 -451 8 -44
18 -91 20 -105 44 -231 189 -572 342 -805 108 -165 185 -259 326 -401 266
-266 541 -444 886 -574 107 -41 308 -99 390 -114 30 -5 84 -14 125 -21 73 -12
212 -20 355 -20 235 1 391 18 565 62 11 2 31 7 45 10 58 12 243 74 340 113
582 239 1071 715 1325 1290 80 182 165 472 165 558 -1 85 -103 135 -177 86
-31 -20 -42 -44 -69 -153 -50 -197 -136 -426 -205 -543 -16 -27 -29 -52 -29
-55 0 -14 -139 -216 -205 -298 -314 -388 -742 -659 -1225 -776 -108 -26 -115
-28 -175 -35 -27 -4 -53 -8 -56 -10 -11 -6 -217 -18 -314 -18 -93 0 -253 11
-299 20 -11 2 -38 6 -61 10 -22 3 -85 16 -140 29 -555 130 -1043 472 -1361
952 -74 111 -187 325 -219 413 -73 204 -108 339 -141 550 -15 97 -11 452 6
582 9 71 19 130 21 132 2 3 54 -27 114 -66 210 -135 228 -145 266 -143 28 2
131 64 465 280 236 153 434 279 440 282 7 3 66 -30 131 -72 632 -409 751 -485
770 -490 37 -9 91 17 233 110 74 48 198 129 275 178 77 50 198 128 270 175
175 114 165 111 217 75 23 -17 88 -59 143 -95 200 -129 322 -208 435 -282 250
-163 274 -175 326 -156 20 8 114 67 282 178 29 19 54 33 56 31 2 -2 7 -33 11
-69 4 -36 8 -67 10 -70 3 -5 11 -115 20 -262 2 -43 9 -87 15 -98 15 -27 68
-60 98 -60 40 0 88 29 104 64 24 49 15 309 -17 476 -3 14 -7 43 -10 65 -7 62
-33 179 -45 207 -12 26 -52 54 -85 59 -37 6 -75 -11 -173 -75 -53 -35 -144
-93 -201 -130 l-103 -67 -97 63 c-98 63 -276 179 -458 297 -109 71 -105 65
-119 171 -6 51 -62 326 -74 371 -10 35 -5 36 85 15 155 -36 446 -53 572 -34
107 16 118 18 168 32 285 79 472 280 502 540 37 329 -95 654 -383 941 -201
200 -407 337 -736 490 -21 9 -38 22 -38 29 0 26 -103 280 -160 394 -188 377
-432 617 -700 691 -98 27 -217 36 -249 19z m464 -413 c33 -30 132 -156 171
-217 83 -129 203 -378 183 -378 -14 0 -212 59 -218 65 -3 3 -6 13 -7 23 -2 9
-5 37 -9 62 -16 119 -92 327 -164 448 -39 67 -39 73 1 36 18 -16 37 -33 43
-39z m-932 -152 c172 -178 287 -383 403 -713 43 -122 72 -168 110 -171 18 -2
51 -2 67 0 19 2 61 43 73 71 15 36 10 65 -29 179 l-35 102 36 -5 c405 -51 784
-174 1150 -375 l53 -29 -40 -28 c-49 -36 -73 -75 -73 -120 0 -46 25 -82 70
-101 45 -19 82 -12 135 27 49 34 91 45 142 36 27 -5 56 -27 118 -89 131 -130
228 -271 275 -399 l21 -56 -41 -14 c-126 -41 -100 -222 32 -220 l39 1 -4 -51
c-12 -132 -80 -238 -194 -303 -273 -156 -783 -104 -1376 140 -132 54 -443 212
-578 294 -196 118 -214 124 -268 88 -63 -42 -78 -113 -34 -165 31 -37 268
-179 477 -285 176 -90 344 -163 506 -222 56 -21 104 -40 106 -44 2 -3 7 -22
10 -41 3 -19 12 -57 20 -85 14 -45 66 -281 66 -297 0 -3 -12 -9 -27 -13 -16
-3 -152 -87 -303 -185 -151 -98 -346 -224 -432 -280 l-156 -101 -89 58 c-48
32 -96 62 -105 68 -10 5 -118 75 -240 154 -429 279 -450 291 -480 291 -34 0
-67 -16 -160 -76 -37 -24 -69 -44 -72 -44 -2 0 6 21 18 48 13 26 35 79 50 117
15 39 31 79 36 90 20 46 72 215 99 329 25 105 44 211 66 371 3 22 7 155 10
295 9 444 15 544 45 693 52 259 148 410 313 490 62 30 73 33 81 20 8 -15 4
-132 -10 -245 -5 -45 -3 -63 10 -83 24 -37 63 -58 103 -57 66 3 104 44 118
132 4 25 9 54 11 65 6 27 6 225 0 251 -2 12 -7 39 -10 60 -22 134 -113 374
-179 468 -20 28 -20 28 0 18 10 -6 40 -32 66 -59z m-2339 -378 c208 -59 467
-171 611 -263 22 -15 50 -32 63 -39 44 -24 214 -156 286 -222 256 -238 428
-485 577 -830 11 -24 18 -45 17 -47 -2 -1 -27 19 -55 46 -196 184 -543 407
-615 396 -81 -13 -124 -90 -93 -168 6 -15 105 -88 119 -88 4 0 46 -24 94 -54
161 -101 328 -238 455 -376 78 -83 79 -85 72 -125 -4 -22 -9 -56 -12 -75 -5
-36 -52 -233 -57 -238 -2 -1 -32 26 -67 60 -210 205 -442 346 -741 452 l-77
28 -7 46 c-13 90 -26 142 -56 227 -26 72 -58 131 -109 205 -21 29 -36 56 -34
58 2 2 55 -11 117 -29 62 -19 119 -33 126 -33 6 1 21 2 31 3 34 2 78 48 84 87
7 44 -15 98 -48 120 -48 31 -305 101 -460 124 -44 7 -87 14 -95 15 -8 2 -18 4
-21 4 -3 1 -6 45 -7 99 -1 140 -35 270 -111 420 -31 61 -98 172 -110 182 -4 3
-15 18 -25 33 -17 28 -17 29 1 24 10 -3 76 -22 147 -42z"/>
<path d="M4581 5528 c-111 -17 -235 -99 -247 -163 -9 -49 2 -83 38 -115 25
-23 39 -28 73 -26 24 1 55 11 70 22 94 67 143 71 230 17 79 -49 131 -52 174
-8 49 50 47 119 -6 171 -86 82 -209 120 -332 102z"/>
<path d="M5600 4652 c-101 -16 -127 -151 -41 -209 81 -55 193 22 174 120 -10
52 -78 98 -133 89z"/>
</g>
</svg>
